<svg xmlns="http://www.w3.org/2000/svg" version="1.1" xmlns:xlink="http://www.w3.org/1999/xlink" width="1500" height="1500" viewBox="0 0 1500 1500"><rect width="1500" height="1500" x="0" y="0" id="background" stroke="transparent" fill="#333b6a"></rect><svg xml:space="preserve" width="1000" height="1000" data-version="2" data-id="lg_PkvkDU78g6035hjHvn" viewBox="0 0 567 242" x="250" y="250"><rect width="100%" height="100%" fill="transparent"></rect><path fill="#b7feae" d="M207.62 23.06q0 10.81-9.23 17.08-9.23 6.28-26.98 6.68v20.91l11.12.11v3.57h-33.05v-3.57l5-.11V6.74l-5-.1V3.07l19.69.2 15.2-.71q7.34 0 12.6 2.75 5.25 2.75 7.95 7.45 2.7 4.69 2.7 10.3m-18.15 2.96q0-5.41-2.35-9.85-2.34-4.43-6.47-6.98-4.14-2.55-9.24-2.55v36.21q8.47-.51 13.26-4.95 4.8-4.44 4.8-11.88"></path><rect width="58.14" height="68.85" x="-29.07" y="-34.42" fill="none" rx="0" ry="0" transform="translate(179.05 37.48)"></rect><path fill="#b7feae" d="M212.52 71.41v-3.57l5-.11V6.74l-5-.1V3.07h26.93v3.57l-5 .1v60.99l5 .11v3.57z"></path><rect width="26.93" height="68.34" x="-13.46" y="-34.17" fill="none" rx="0" ry="0" transform="translate(226.49 37.74)"></rect><path fill="#b7feae" d="m304.52 67.73 3.98.11v3.57h-29.68v-3.57l5-.11-13.98-24.58-7.95 24.58 6.53.11v3.57h-25.1v-3.57l5.31-.11 18.46-29.37-17.95-31.62-5-.1V3.07h30.7v3.57l-5 .1 11.63 20.4 8.67-20.4-6.53-.1V3.07h23.57v3.57l-4.29.1-18.97 24.68z"></path><rect width="65.18" height="68.34" x="-32.59" y="-34.17" fill="none" rx="0" ry="0" transform="translate(276.41 37.74)"></rect><path fill="#b7feae" d="m360.11 51.21 3.98-.1v20.3h-51.71v-3.57l5-.11V6.74l-5-.1V3.07h49.67v19.78l-3.98-.1-.2-5.1q-11.32-7.04-23.56-11.83l.2 28.36h19.08v3.77h-19.08l.21 30.6q13.05-5 25.19-12.24z"></path><rect width="51.71" height="68.34" x="-25.86" y="-34.17" fill="none" rx="0" ry="0" transform="translate(338.74 37.74)"></rect><path fill="#b7feae" d="m418.05 51.21 3.98-.1v20.3h-51.72v-3.57l5-.11V6.74l-5-.1V3.07h33.05v3.57l-11.12.1v60.79q12.75-4.49 25.61-11.22z"></path><rect width="51.72" height="68.34" x="-25.86" y="-34.17" fill="none" rx="0" ry="0" transform="translate(396.67 37.74)"></rect><path fill="#b7feae" d="M26.17 109.54q0 3.27 1.83 6.02 1.84 2.76 4.59 4.9 2.76 2.14 7.55 5.3 5.61 3.67 8.98 6.48 3.36 2.8 5.76 6.73 2.4 3.93 2.4 8.82 0 5.41-2.96 10.15-2.96 4.75-8.88 7.7-5.91 2.96-14.28 2.96-17.95 0-25.5-14.28l11.53-8.87q4.9 10.1 11.02 19.58h.1q2.96 0 5.51-1.58t4.08-4.13q1.53-2.55 1.53-5.41 0-3.06-1.79-5.66-1.78-2.6-4.44-4.59-2.65-1.99-7.24-4.84-5.51-3.47-8.87-6.12-3.37-2.65-5.76-6.48-2.4-3.82-2.4-8.82 0-5.61 3.21-10.25t9.18-7.3q5.97-2.65 14.03-2.65 7.85 0 12.9 2.5 5.05 2.5 9.13 7.09L46.67 117.6q-5.41-8.97-10.92-16.83-4.59 0-7.08 2.5-2.5 2.5-2.5 6.27"></path><rect width="51.72" height="71.4" x="-25.86" y="-35.7" fill="none" rx="0" ry="0" transform="translate(32.02 133.4)"></rect><path fill="#b7feae" d="M96.85 97.2q10 0 17.5 3.88 7.49 3.87 11.62 11.42 4.13 7.55 4.13 18.46 0 6.94-2.44 14.33-2.45 7.4-7.14 13.11-4.9 4.59-11.22 7.4-6.33 2.8-13.47 2.8-9.89 0-17.39-3.87-7.5-3.88-11.63-11.43-4.13-7.55-4.13-18.46 0-6.83 2.55-14.28 2.55-7.45 7.24-13.16 4.8-4.59 11.07-7.39 6.27-2.81 13.31-2.81m-16.01 30.5q0 11.83 3.06 19.07 3.06 7.25 9.28 10.66 6.22 3.42 16.12 3.93 1.22-5.1 1.99-11.99.76-6.88.76-11.27 0-11.93-3.11-19.22-3.11-7.3-9.44-10.76-6.32-3.47-16.11-3.88-1.12 5.3-1.84 12.34-.71 7.04-.71 11.12"></path><rect width="67.42" height="71.4" x="-33.71" y="-35.7" fill="none" rx="0" ry="0" transform="translate(96.89 133.4)"></rect><path fill="#b7feae" d="M177.43 98.73h23.16v3.57l-4.29.1-23.87 63.86-13.26 1.73-22.13-65.59-4.28-.1v-3.57h31v3.57l-6.01.1 13.56 52.53 12.14-52.53-6.02-.1z"></path><rect width="67.83" height="69.26" x="-33.91" y="-34.63" fill="none" rx="0" ry="0" transform="translate(167.18 133.86)"></rect><path fill="#b7feae" d="m252.2 146.88 3.98-.11v20.3h-51.72v-3.57l5-.1v-61l-5-.1v-3.57h49.68v19.79l-3.98-.1-.21-5.1q-11.32-7.04-23.56-11.83l.21 28.35h19.07v3.78H226.6l.2 30.6q13.06-5 25.19-12.24z"></path><rect width="51.72" height="68.34" x="-25.86" y="-34.17" fill="none" rx="0" ry="0" transform="translate(230.82 133.4)"></rect><path fill="#b7feae" d="m324.11 163.4 5 .1v3.57h-24.59l-13.87-27.33.31-.21q-2.35.21-6.63.41v23.46l5 .1v3.57H262.4v-3.57l5-.1v-61l-5-.1v-3.57l19.68.21 15.2-1.23q7.35 0 12.6 2.7 5.25 2.71 7.96 7.25 2.7 4.54 2.7 10.04 0 6.33-3.67 11.02-3.68 4.69-11.02 7.55zm-39.78-61.1v33.66q8.46-.51 13.26-4.64 4.79-4.13 4.79-11.17 0-5-2.34-9.08-2.35-4.08-6.43-6.42-4.08-2.35-9.28-2.35"></path><rect width="66.71" height="69.36" x="-33.35" y="-34.68" fill="none" rx="0" ry="0" transform="translate(296.25 132.89)"></rect><path fill="#b7feae" d="m380.72 146.88 3.98-.11v20.3h-51.72v-3.57l5-.1v-61l-5-.1v-3.57h49.68v19.79l-3.98-.1-.21-5.1q-11.32-7.04-23.56-11.83l.21 28.35h19.07v3.78h-19.07l.2 30.6q13.06-5 25.19-12.24z"></path><rect width="51.72" height="68.34" x="-25.86" y="-34.17" fill="none" rx="0" ry="0" transform="translate(359.34 133.4)"></rect><path fill="#b7feae" d="M390.92 167.07v-3.57l5-.1v-61l-5-.1v-3.57h26.93v3.57l-5 .1v61l5 .1v3.57z"></path><rect width="26.93" height="68.34" x="-13.46" y="-34.17" fill="none" rx="0" ry="0" transform="translate(404.88 133.4)"></rect><path fill="#b7feae" d="M461.6 131.68h25.91v3.57l-4.59.1v31.72h-3.26l-7.45-5.1q-3.98 3.16-8.62 4.9-4.64 1.73-9.43 1.73-8.98 0-15.81-4.13-6.84-4.13-10.61-11.63-3.77-7.49-3.77-17.39 0-9.38 3.41-17.75 3.42-8.36 8.72-13.36 5.21-3.36 11.17-5.15 5.97-1.78 11.78-1.78 7.76 0 14.23 3.31 6.48 3.32 10.25 9.23l-12.54 10.51q-5.61-9.49-12.75-20.2-7.04 3.06-11.53 11.32-4.49 8.27-4.49 18.77 0 12.96 5.87 20.35 5.86 7.4 16.06 7.4 1.64 0 2.45-.11v-22.64l-5-.1z"></path><rect width="63.54" height="71.19" x="-31.77" y="-35.59" fill="none" rx="0" ry="0" transform="translate(456.24 133.5)"></rect><path fill="#b7feae" d="M540.55 98.73h19.79v3.57l-5 .1-2.65 64.57-12.34.1-36.82-57.93 3.87 54.26 6.02.1v3.57h-20.81v-3.57l5-.1 1.73-61-4.99-.1v-3.57h25.19l29.68 46-2.65-42.33-6.02-.1z"></path><rect width="67.73" height="68.34" x="-33.87" y="-34.17" fill="none" rx="0" ry="0" transform="translate(526.98 133.4)"></rect><path fill="#cafbff" d="m160.94 236.45 6.97-28.19.3-.5 1.19-5.53q.15-.59.52-.69.38-.1.78-.1.99 0 1.19.45.2.44.2 1.39 0 .2-.02.52l-.03.33-4.13 15.79v.44q0 .3.12.5.13.2.62.05 1.35-.05 2.92-.12 1.57-.08 3.26-.3 1.69-.23 3.29-.7 1.59-.47 2.84-1.29 1.24-.83 2.01-2.1.78-1.27.78-3.11 0-2.34-1.27-4.68t-3.22-4.28q-1.94-1.95-4.33-3.14-2.39-1.2-4.68-1.2-1.15 0-2.02.48-.87.47-1.57.99-.69.53-1.34 1-.65.47-1.25.47-.99 0-.99-.99 0-.05.02-.1.03-.05.03-.1.39-1.05 1.14-1.85.75-.79 1.67-1.39.92-.6 1.99-.87 1.07-.28 2.12-.28h1.52q.72 0 1.52.25 2.44 1.1 4.85 2.57 2.42 1.47 4.36 3.38 1.94 1.92 3.14 4.39 1.19 2.46 1.19 5.4 0 2.34-.94 3.96-.95 1.62-2.54 2.72-1.6 1.09-3.61 1.69-2.02.6-4.16.87t-4.21.3q-2.07.02-3.71-.03l-.2.25-3.69 14.1q-.14.55-.64.87-.5.32-1.05.32-.35 0-.55-.25-.2-.25-.3-.54-.09-.3-.12-.65-.02-.35.03-.5"></path><rect width="25.73" height="41.04" x="-12.87" y="-20.52" fill="none" rx="0" ry="0" transform="translate(174.26 218.37)"></rect><path fill="#cafbff" d="M186.29 232.47q1.39-1.05 2.06-2.05.67-.99 1.07-1.99.4-.99.65-2.11.25-1.13.8-2.47-.2-.35-.23-.62-.02-.28-.02-.67 0-.4.12-.95.13-.55.38-1.02.25-.48.59-.82.35-.35.85-.35-.05.2.57.45.63.24 1.55.54.92.3 1.97.65 1.04.35 1.84.75.89.5 1.27 1.07.37.57.37 1.62 0 .94-.22 2.14-.23 1.19-.45 2.41-.23 1.22-.45 2.44-.22 1.23-.22 2.22v1.3q-.05.44.22.47.27.02.52.02.6 0 1.1-.19.5-.2 1.02-.45t1.02-.48q.5-.22 1.05-.32l4.38-2.69q.2-.35.52-.57.33-.23.63-.43.49-.29 1.19-.84.35-.3.75-.6h1.49q.15 0 .2.3.05.3.05.45 0 .59-.85 1.49-.84.9-2.19 1.84-1.34.95-2.99 1.87-1.64.92-3.21 1.67-1.57.75-2.89 1.2-1.32.44-2.01.44-.9 0-1.45-.44-.55-.45-.89-1.1-.35-.65-.48-1.42-.12-.77-.12-1.52 0-.55.35-1.54.35-1 .79-2.04.45-1.05.8-2.05.35-.99.35-1.59 0-.05-.72-.4-.73-.35-1.57-.77-.85-.42-1.57-.75-.72-.32-.72-.37-1.1 1.14-1.52 2.44-.43 1.29-.85 2.69-.42 1.39-1.24 2.79-.83 1.39-2.77 2.74-.05 0-.22-.05-.18-.05-.35-.28-.17-.22-.27-.69-.1-.48-.05-1.37"></path><rect width="26.67" height="18.77" x="-13.34" y="-9.38" fill="none" rx="0" ry="0" transform="translate(200.1 229.3)"></rect><path fill="#cafbff" d="m210.39 232.37.7-4.44q.05-.25.3-.89.25-.65.52-1.4.27-.74.52-1.39.25-.65.35-.9.3-.79.57-1.04.28-.25 1.03-.25.79 0 1.04.54.25.55.25 1.3 0 1.29-.37 2.37-.38 1.07-.82 2.14-.45 1.07-.83 2.29-.37 1.22-.37 2.81v.57q0 .38.05.75.05.38.2.65.15.27.4.27 1.29 0 2.61-.52 1.32-.52 2.59-1.24 1.27-.73 2.44-1.6 1.17-.87 2.12-1.52.35-.25.52-.5.18-.24.33-.47.15-.22.37-.4.22-.17.72-.17.65 0 1.07.27.43.28.43.97 0 .3-.03.55-.02.25-.27.45-.05.15-.38.4-.32.25-.67.52-.35.28-.65.5-.3.22-.44.27-.05 0-.28.13-.22.12-.27.12l-.13.13q-.07.07-.07.12-1.05.8-2.27 1.62-1.22.82-2.56 1.49-1.35.68-2.77 1.12-1.42.45-2.81.45-1.2 0-1.82-.62-.62-.62-.92-1.57-.3-.94-.35-1.99-.05-1.05-.05-1.89m3.09-17.53q0-.9.35-1.2.35-.3 1.24-.3.45 0 .9.18.45.17.45.82 0 .64-.63 1.19-.62.55-1.22.55-.59 0-.84-.37-.25-.38-.25-.87"></path><rect width="16.74" height="25.1" x="-8.37" y="-12.55" fill="none" rx="0" ry="0" transform="translate(219.26 226.39)"></rect><path fill="#cafbff" d="M228.22 237.55v-.15l1.69-9.96v-1.4l1-6.62q.15-.2.55-.23.4-.02.55-.02.39 0 .92.27.52.28.52.72v3.39q.2-.15.7-.6l1.07-.94q.57-.5 1.07-.95.5-.45.65-.65.54-.49 1.32-.84.77-.35 1.47-.35 1.44 0 2.26.89.82.9.82 2.3 0 .1-.02.12-.03.03-.03.12v.2l-1.89 8.52v4.03q1.55 0 3.21-.62 1.67-.62 3.22-1.57 1.54-.94 2.89-2.16 1.34-1.22 2.34-2.37h.2q.34 0 .57.23.22.22.22.57 0 1.09-.72 2.16-.72 1.08-1.84 2.02-1.12.95-2.59 1.79-1.47.85-2.89 1.45-1.42.6-2.77.95-1.34.34-2.29.34-.94 0-1.49-.34-.55-.35-.82-.93-.28-.57-.35-1.27-.08-.69-.08-1.49v-.65l1.95-9.66v-1.64q-1.2 0-2.37 1.04-1.17 1.05-2.09 2.54-.92 1.5-1.59 3.04-.68 1.54-.98 2.54-.1.35-.29 1.25-.2.89-.38 1.89-.17.99-.32 1.89-.15.9-.2 1.3.05.29-.18.44-.22.15-.52.23-.3.07-.62.07h-.52q-.45 0-.9-.15t-.45-.74"></path><rect width="25.3" height="19.27" x="-12.65" y="-9.63" fill="none" rx="0" ry="0" transform="translate(241.37 229.3)"></rect><path fill="#cafbff" d="M251.73 231.57q.25-2.54 1.17-4.83.92-2.29 2.14-3.94 1.22-1.64 2.49-2.54 1.27-.89 2.22-.54.25-.15.42-.28.18-.12.3-.25.12-.12.3-.2.17-.07.52-.07.7 0 1.25.45.54.45.97 1.09.42.65.65 1.37.22.73.22 1.32 0 .65-.5.9t-1.14.25q-.4 0-.7-.18-.3-.17-.52-.42-.23-.25-.48-.5-.25-.25-.64-.35h-.2l-.23.23q-.17.17-.22.27-1.05 1.25-1.94 2.22-.9.97-1.57 1.97-.68.99-1.05 2.14-.37 1.14-.37 2.74v.44q0 .3.02.6.03.3.03.6v.45q.1.5.57.75.47.24.87.49.15 0 .75.03.6.02.7.02 1.79 0 4.23-.57 2.44-.57 4.9-1.52 2.47-.94 4.66-2.26 2.19-1.32 3.49-2.77.3-.4.52-1.09.22-.7.5-1.37.27-.68.62-1.17.35-.5 1.05-.5.64 0 .82.52.17.52.17 1.02 0 1.59-.77 2.89-.77 1.29-1.92 2.34-1.14 1.05-2.51 1.84-1.37.8-2.62 1.35-.34.1-1.52.55-1.17.44-2.51.94l-2.62.97q-1.27.48-1.86.73-.8.24-1.35.37-.55.12-.99.22-.45.1-.92.13-.48.02-1.13.02-1.79 0-2.96-.45-1.17-.44-1.87-1.32-.69-.87-1.02-2.14-.32-1.27-.42-2.96"></path><rect width="26.99" height="19.52" x="-13.49" y="-9.76" fill="none" rx="0" ry="0" transform="translate(265.73 229.18)"></rect><path fill="#cafbff" d="m277.28 234.06.25-3.44q.1-.3.32-1.07.23-.77.45-1.67.22-.89.4-1.71.17-.83.27-1.12.3-1.2.72-2.59.43-1.4 1.17-2.59.75-1.2 1.92-1.97t2.92-.77q.64 0 .92.47.27.47.47 1.02 0 .2.03.72.02.53.02.72 0 2.15-.42 3.79-.43 1.64-1.3 3.04-.87 1.39-2.11 2.61-1.25 1.22-2.84 2.57-.05.15-.15.5-.1.34-.1.49v.1q0 .9.3 1.45.29.55.82.87.52.32 1.19.4.68.07 1.47.07 2.34 0 4.48-.64 2.15-.65 3.94-2.1.25-.25.62-.72.38-.47.77-.97.4-.5.85-.87.45-.38.95-.38.49 0 .59.4.1.4.1.8 0 1.1-.67 2.07-.67.97-1.74 1.74-1.07.77-2.44 1.37-1.37.6-2.72 1-1.34.39-2.56.59-1.22.2-2.07.2-2.64 0-4.41-.87-1.76-.87-2.41-3.51m7.37-13.25q-1 .9-1.57 1.62-.57.72-.9 1.49-.32.78-.54 1.67-.23.9-.48 2.09.95-.74 1.57-1.49.62-.75 1.02-1.54.4-.8.6-1.72.2-.92.3-2.12"></path><rect width="19.02" height="21.31" x="-9.51" y="-10.65" fill="none" rx="0" ry="0" transform="translate(287.29 228.28)"></rect><path fill="#cafbff" d="M338.29 235.95q-.15-.3-.45-1.09-.3-.8-.65-1.7-.34-.89-.67-1.69-.32-.8-.47-1.1-.1-.19-.18-.39-.07-.2-.27-.3-1.1 1.04-2.42 2.19-1.32 1.14-2.78 2.07-1.47.92-3.07 1.49-1.59.57-3.18.57-1.75 0-2.74-1.22-1-1.22-1.55-2.94-.55-1.71-.7-3.51-.14-1.79-.14-2.94 0-2.29.74-4.15.75-1.87 2.12-3.19 1.37-1.32 3.26-2.02 1.89-.7 4.23-.7 1.65 0 2.89.78 1.25.77 2.12 1.99.87 1.22 1.44 2.66.58 1.45.98 2.79.44-.25 1.07-1.17.62-.92 1.29-2.04t1.3-2.24q.62-1.12.97-1.82.15-.25.67-1.27t1.15-2.22q.62-1.19 1.14-2.24.52-1.04.67-1.29.05-.1.25-.38.2-.27.25-.37-.05 0-.05-.05v-.25q-2.29 0-4.41-.35-2.11-.35-3.71-1.29-1.59-.95-2.56-2.59-.97-1.65-.97-4.34 0-.14.02-.74.03-.6.03-.8.15-.5.54-.82.4-.32.9-.42.45-.1.67.49.23.6.4 1.6.18.99.45 2.14.27 1.14.95 2.17.67 1.02 1.79 1.76 1.12.75 3.01.85.1 0 .67.03.58.02.98.02h.72q.47 0 .94-.02.48-.03.9-.15.42-.13.62-.38.3-.35 1.02-1.22.73-.87 1.47-1.82.75-.94 1.45-1.81.7-.88.99-1.22.85-.85 1.9-1.7 1.04-.84 2.19-1.49 1.14-.65 2.39-1.05 1.24-.4 2.54-.4.9 0 1.52.35t.97.92q.35.58.47 1.3.13.72.13 1.47 0 1.44-.73 2.54-.72 1.09-1.86 1.94-1.15.85-2.47 1.45-1.32.59-2.51.99-.4.15-1.45.45-1.04.3-2.26.67-1.22.38-2.29.67-1.08.3-1.52.35-.35.35-.78.85-.42.5-.62.9l-6.12 11.2q-.05 0-.13.08l-.12.12q0 .1-.15.38-.15.27-.3.59-.15.33-.3.63-.15.29-.15.34-.15.2-.52.78-.38.57-.82 1.19-.45.62-.83 1.17-.37.55-.52.75v.25q.35 1.29.62 2.21.28.93.55 1.77.27.85.67 1.8.4.94 1.05 2.24.2.34.55.64.35.3.72.6t.65.62q.27.33.27.68 0 .89-.9.89-1.29 0-2.29-.74-.99-.75-1.64-1.75m-16.78-11.05q0 .59.09 1.96.1 1.37.43 2.79.32 1.42.99 2.52.68 1.09 1.82 1.09 1.35 0 2.42-.59 1.07-.6 2.26-1.1l5.13-4.83v-.2q0-.9-.42-2.34-.42-1.45-1.17-2.84t-1.74-2.37q-1-.97-2.14-.97-1.65 0-3.07.4t-2.41 1.25q-1 .84-1.6 2.14-.59 1.29-.59 3.09m39.44-27.55q-1.19 0-2.39.5-1.2.5-2.29 1.3-1.1.79-2.04 1.74-.95.95-1.65 1.79-.2.2-.47.6-.27.4-.55.72-.27.33-.47.6l-.2.27v.25h.2q.05 0 .7-.2.64-.2 1.52-.47.87-.27 1.76-.55.9-.27 1.4-.47.75-.25 1.72-.67.97-.43 1.84-1.02.87-.6 1.47-1.35.6-.75.6-1.69 0-.8-.23-1.07-.22-.28-.92-.28"></path><rect width="45.47" height="43.78" x="-22.73" y="-21.89" fill="none" rx="0" ry="0" transform="translate(342.25 217.05)"></rect><path fill="#cafbff" d="M353.63 236.9v-1.55q-.85-2.98-.22-5.87.62-2.89 2.24-5.21 1.62-2.31 4.13-3.88 2.52-1.57 5.5-1.92h.9q1.1 0 1.82.47.72.48 1.14 1.22.43.75.6 1.7.18.94.18 1.89 0 1.3-.28 2.52-.27 1.22-.6 2.46-.32 1.25-.59 2.47-.28 1.22-.28 2.56v.3q.05.1.13.57.07.48.12.58.1 0 .5.02.4.03.5.03.5 0 .97-.03.47-.02.97-.22l9.46-4.39q.05 0 .18-.02.12-.03.17-.03.5 0 .82.3.33.3.33.8 0 .25-.03.47-.02.23-.27.43-.35.24-1.27.69-.92.45-1.97 1-1.05.55-1.97 1.05-.92.49-1.32.64-.69.4-1.54.72-.85.33-1.74.63-.9.3-1.77.47-.87.17-1.57.17-1.1 0-1.79-.37-.7-.37-1.05-.99-.35-.63-.47-1.5-.13-.87-.03-1.82-.99.8-2.14 1.7-1.14.89-2.39 1.64-1.24.75-2.54 1.29-1.29.55-2.64.55-.75 0-1.34-.37-.6-.37-.85-1.17m2.69-2.39v1.34q1.14 0 2.54-.67 1.39-.67 2.74-1.67 1.34-.99 2.44-2.11 1.09-1.13 1.69-2.02.05-1.5.43-2.87.37-1.37.37-2.81 0-.1-.03-.3-.02-.2-.02-.3-.65-.54-1.1-.64-.44-.1-1.19-.1h-.43q-.32 0-.42.05-.3.24-.99.92-.7.67-1.47 1.47-.78.79-1.45 1.49-.67.7-.92.95-.05 0-.2.17-.15.18-.32.42-.18.25-.3.48-.13.22-.18.37z"></path><rect width="29.36" height="19.97" x="-14.68" y="-9.98" fill="none" rx="0" ry="0" transform="translate(368.14 228.96)"></rect><path fill="#cafbff" d="M392.78 230.87h-.25q-.25.25-.95.85t-1.47 1.27q-.77.67-1.47 1.24-.7.58-.99.78-.1.05-.58.32-.47.27-1.07.65-.6.37-1.22.69-.62.33-.97.53-.6.3-.85.42-.24.13-.74.13-.8 0-1.67-.53-.87-.52-.87-1.47v-5.38l.69-3.63q.55-2.09 1.25-3.41.7-1.32 1.74-2.19 1.05-.88 2.52-1.32 1.47-.45 3.46-.85.1-.05.65-.25.54-.2.64-.25h.7q.8 0 1.42.35.62.35 1.22.9l2.49-10.66q-.1-.55 0-1.52t.37-1.97q.28-.99.73-1.69.45-.7 1.04-.7.75 0 1.17.55.43.55.28 1.39l-2.69 16.29q-.9 2.14-1.32 4.28-.43 2.14-.43 4.44 0 1.04.15 2.09.15 1.04.58 1.89.42.85 1.17 1.37.74.52 1.94.52 2.64 0 5.23-.97 2.59-.97 4.58-2.66.1 0 .15-.03.05-.02.15-.02.4 0 .7.25 0 .1.02.29.03.2.03.3 0 .8-.65 1.5-.65.69-1.67 1.29-1.02.6-2.24 1.05-1.22.45-2.44.8-1.22.34-2.27.49-1.04.15-1.64.15-1.74 0-2.91-.57-1.17-.57-1.95-1.62-.77-1.04-1.17-2.41-.39-1.37-.59-2.97m-9.97-1.94q0 .3-.07 1-.07.69-.15 1.52-.07.82-.15 1.54-.07.72-.12 1.07 0 .1-.03.5-.02.4-.02.5.69 0 1.79-.58 1.1-.57 2.29-1.49 1.2-.92 2.44-2.09 1.25-1.17 2.22-2.32.97-1.14 1.62-2.26.64-1.13.64-1.92 0-.25-.37-.7-.37-.45-.85-.85-.47-.39-.94-.69-.48-.3-.82-.3-1.05-.35-2.42.17-1.37.53-2.56 1.6-1.2 1.07-1.95 2.46-.74 1.4-.55 2.84"></path><rect width="30.63" height="35.26" x="-15.31" y="-17.63" fill="none" rx="0" ry="0" transform="translate(395.5 221.31)"></rect></svg></svg>